<svg xmlns="http://www.w3.org/2000/svg" viewBox="0 0 340 120" role="img" aria-label="CTC">
  <rect width="340" height="120" fill="none"/>
  <g fill="none" stroke-linecap="round">
    <path d="M30 91C39 54 57 29 83 16" stroke="#a6ce39" stroke-width="9"/>
    <path d="M44 96C56 61 75 38 101 26" stroke="#c7d800" stroke-width="9"/>
    <path d="M59 96C72 70 91 52 114 43" stroke="#ff8f00" stroke-width="8"/>
    <path d="M22 78C18 63 19 49 25 37" stroke="#9ccB2e" stroke-width="7"/>
  </g>
  <path fill="#fff" d="M111 43h42c11 0 18 4 21 12l-21 3c-2-3-5-4-10-4h-17c-12 0-20 6-24 18-4 13 1 19 13 19h17c5 0 9-1 13-4l17 4c-7 8-17 12-29 12H92c-11 0-20-4-26-11-6-7-7-16-4-27 4-13 11-23 21-30 8-5 18-8 28-8Zm62 0h82l-4 12h-28l-16 48h-25l16-48h-29l4-12Zm89 0h42c11 0 18 4 21 12l-21 3c-2-3-5-4-10-4h-17c-12 0-20 6-24 18-4 13 1 19 13 19h17c5 0 9-1 13-4l17 4c-7 8-17 12-29 12h-41c-11 0-20-4-26-11-6-7-7-16-4-27 4-13 11-23 21-30 8-5 18-8 28-8Z"/>
</svg>
